<?xml version="1.0" encoding="UTF-8"?>
<svg width="48" height="48" viewBox="0 0 48 48" fill="none" xmlns="http://www.w3.org/2000/svg">
  <circle cx="24" cy="24" r="20" fill="#4285F4"/>
  <path d="M35.9 24.1c0-.8-.1-1.6-.2-2.4H24v4.5h6.7c-.3 1.5-1.2 2.8-2.5 3.7v3h4c2.4-2.2 3.7-5.4 3.7-8.8z" fill="#FFFFFF"/>
  <path d="M24 36c3.3 0 6.1-1.1 8.2-3l-4-3c-1.1.7-2.5 1.2-4.2 1.2-3.2 0-5.9-2.1-6.9-5h-4.1v3.1C15.1 33.4 19.3 36 24 36z" fill="#34A853"/>
  <path d="M17.1 26.2c-.2-.7-.4-1.4-.4-2.2s.1-1.5.4-2.2v-3.1h-4.1C12.4 20.1 12 22 12 24s.4 3.9 1 5.7l4.1-3.5z" fill="#FBBC05"/>
  <path d="M24 16.8c1.8 0 3.4.6 4.7 1.8l3.5-3.5C30.1 13.2 27.3 12 24 12c-4.7 0-8.9 2.6-11 6.5l4.1 3.1c1-2.9 3.7-5 6.9-5z" fill="#EA4335"/>
</svg> 