<svg xmlns="http://www.w3.org/2000/svg" viewBox="0 0 48 48">
  <path fill="#000000" d="M38.0766847,15.8542954 C36.0693906,15.7935177 34.2504839,14.8341149 32.8791434,13.5466056 C32.1316475,12.8317108 31.540171,11.9694126 31.1415066,11.0151329 C30.7426093,10.0603874 30.5453728,9.03391879 30.5619062,8 L24.9731521,8 L24.9731521,28.8295196 C24.9731521,32.3434487 22.8773693,34.4182737 20.2765028,34.4182737 C19.6505623,34.4320127 19.0283477,34.3209362 18.4461858,34.0908659 C17.8640239,33.8607956 17.3337909,33.5165821 16.8862248,33.0797671 C16.4386588,32.6429522 16.0831,32.1221067 15.8404721,31.5476033 C15.5978442,30.9730999 15.4727931,30.3564016 15.4727931,29.7335563 C15.4727931,29.1107109 15.5978442,28.4940126 15.8404721,27.9195092 C16.0831,27.3450058 16.4386588,26.8241603 16.8862248,26.3873454 C17.3337909,25.9505304 17.8640239,25.6063169 18.4461858,25.3762466 C19.0283477,25.1461763 19.6505623,25.0350998 20.2765028,25.0488388 L20.2765028,19.4600847 C17.7056522,19.4600847 15.2584834,20.4187264 13.4641654,22.2130444 C11.6698474,24.0073624 10.7112057,26.4545312 10.7112057,29.0253818 C10.7112057,31.5962324 11.6698474,34.0434012 13.4641654,35.8377192 C15.2584834,37.6320372 17.7056522,38.5906789 20.2765028,38.5906789 C22.8473534,38.5906789 25.2945222,37.6320372 27.0888402,35.8377192 C28.8831582,34.0434012 29.8417999,31.5962324 29.8417999,29.0253818 L29.8417999,18.5302986 C31.9263395,20.0790236 34.3766244,20.9195922 36.8937944,20.9626483 L36.8937944,15.9150731 C36.8937944,15.9150731 38.0766847,15.8542954 38.0766847,15.8542954 Z"/>
</svg> 